<svg xmlns="http://www.w3.org/2000/svg" viewBox="0 0 176.74 63.92">
    <defs>
        <style>
            .cls-1{fill:#e7e7e7}
        </style>
    </defs>
    <title>
        tsalagi
    </title>
    <g id="Layer_2" data-name="Layer 2">
        <g id="tsa">
            <path class="cls-1" d="M39.2,12.45c-10-10.07-26.66-5.19-30.27,8.07-1.68,6.22-2.32,12.59-.88,19,1.65,7.34,6.24,12,12.79,15.74C29,59.91,36,56.55,43.49,54.13c1.27-.41,3.2-3.06,4.12-.22.63,2,1.47,5.14-1.5,6.36C25,69,3.31,61.61.39,37.27-1,25.52,1.22,14.64,11,6,21.21-3,37.7-1.9,45.62,9.49c1.65,2.38,3.21,3.68,6.12,3.23,2-.31,3.29.21,3.27,2.76,0,2.33-.86,3-3.09,3-5.75-.1-11.51-.09-17.26,0-2.18,0-3.17-.61-3.18-3s1.21-3,3.29-2.84C36,12.74,37.22,12.56,39.2,12.45Z"/>
        </g>
        <g id="la">
            <path class="cls-1" d="M110.59,49.65c3.66-15,7.38-30,10.94-45,1-4.12,4-2.92,6.45-2.75,3.4.24,1.19,2.79.91,3.91-3.8,14.83-7.81,29.6-11.74,44.39-.7,2.62-1.48,5.22-2,7.88-.64,3.54-1.86,5.45-6.17,5.35s-4.29-2.78-5-5.47L93.27,16.33q-.22-1-.81-.15c-3.79,14-7.61,28-11.32,42.08-.76,2.89-1.15,5.16-5.29,5.15S71,61.3,70.18,58.11C65.84,41.93,61.27,25.82,56.81,9.67c-.67-2.43-1.2-4.91-1.8-7.39,7.19-1.14,7.11-1.12,8.84,5.45,3.82,14.52,7.72,29,11.92,44.74,2.88-10.3,5.5-19.52,8-28.76,1.77-6.45,3.47-12.93,5-19.43.62-2.57,2.34-2.54,4.35-2.54s3.35.16,3.92,2.46c3.85,15.49,7.81,31,11.73,46.43C110,51.35,110.18,50.3,110.59,49.65Z"/>
        </g>
        <g id="gi">
            <path d="M132.52,1.68c5.1-1.41,7.92-.51,9.82,5,3.42,9.78,8,19.15,12.11,28.68.18.42.61.72,1.25,1.45C159.86,26.48,164,16.48,168,6.4c2.17-5.55,2-5.61,8.78-4.87-1.53,7.77-5.57,14.56-8.55,21.68C163.46,34.53,159.6,46.28,153,56.76c-3.57,5.66-11.23,8.6-17.58,6.45-3.9-1.32-2.7-4.67-2.08-6.82.57-2,2.49-.28,3.74.52,2.08,1.34,3.75,1.08,6-.4,3.54-2.34,5.47-5.69,7.54-9.11,1.09-1.8.5-3.29-.25-4.95q-7.45-16.59-14.8-33.22C134.43,6.78,133.53,4.24,132.52,1.68Z" style="fill:#e6e6e6"/>
        </g>
    </g>
</svg>
